#!OML:ASF H:\Terrain\Patient Classification 1\Walking\steve\steve.ASF
:FULLY-SPECIFIED
:DEGREES
170
root 7.30754 16.3262 3.49658 5.67234 0.212298 -2.94122
lowerback -0.481088 2.16613 5.02252
upperback -2.9935 3.02709 3.32867
thorax -2.73971 1.43379 0.563905
lowerneck -9.9291 0.707799 -3.33213
upperneck 10.4903 1.75519 -2.43542
head 4.77702 0.574647 -0.090192
rclavicle -5.11871e-015 -1.51076e-014
rhumerus -45.9151 -32.548 -63.1814
rradius 17.4413
rwrist 16.8546
rhand -20.863 -40.3931
rfingers 7.12502
rthumb 5.50665 -70.3016
lclavicle -5.11871e-015 -1.51076e-014
lhumerus -32.6155 -4.93776 93.6949
lradius 36.694
lwrist 23.9971
lhand -22.5958 -13.8141
lfingers 7.12502
lthumb 3.83345 16.1311
rfemur -24.491 4.76561 28.5506
rtibia 36.477
rfoot -13.8599 9.29914
rtoes 6.86635
lfemur -22.5779 4.05221 -16.9914
ltibia 72.4422
lfoot -0.987915 4.40016
ltoes -8.16013
171
root 7.30008 16.3428 3.71551 5.62141 0.0331621 -2.9084
lowerback -0.69563 2.25169 4.99341
upperback -2.9986 3.12211 3.24128
thorax -2.61802 1.48293 0.497768
lowerneck -9.35938 0.729186 -3.51903
upperneck 10.4869 1.75327 -2.18278
head 4.67664 0.58707 0.0154534
rclavicle -1.93318e-014 -1.74931e-014
rhumerus -43.2238 -30.2739 -66.4357
rradius 18.397
rwrist 13.7053
rhand -21.2715 -42.9736
rfingers 7.12502
rthumb 5.11223 -72.892
lclavicle -1.93318e-014 -1.74931e-014
lhumerus -33.5053 -4.32211 93.5182
lradius 34.3851
lwrist 23.0775
lhand -22.4175 -13.7049
lfingers 7.12502
lthumb 4.00559 16.2372
rfemur -23.3266 4.77511 28.6413
rtibia 36.0726
rfoot -14.457 9.73667
rtoes 8.7441
lfemur -24.1067 4.33463 -17.1681
ltibia 72.4357
lfoot -2.1282 4.20918
ltoes -11.135
172
root 7.29704 16.3537 3.93647 5.59079 -0.219893 -2.95077
lowerback -0.887099 2.28434 5.00292
upperback -2.99427 3.15017 3.24068
thorax -2.50448 1.49882 0.499947
lowerneck -9.25276 0.904059 -3.3549
upperneck 10.7475 1.99167 -2.3602
head 4.74127 0.694867 -0.0496123
rclavicle 1.4064e-014 2.94201e-014
rhumerus -40.7215 -27.5661 -69.5348
rradius 19.6714
rwrist 10.8175
rhand -21.1801 -44.8671
rfingers 7.12502
rthumb 5.20043 -74.7833
lclavicle 1.4064e-014 2.94201e-014
lhumerus -34.3964 -2.97844 93.0873
lradius 32.2447
lwrist 22.0794
lhand -21.7665 -12.668
lfingers 7.12502
lthumb 4.63426 17.2613
rfemur -22.2079 4.70612 28.7788
rtibia 35.7414
rfoot -14.9282 10.289
rtoes 9.70117
lfemur -25.4442 4.54513 -17.3302
ltibia 72.1995
lfoot -3.62728 4.22623
ltoes -11.6024
173
root 7.29908 16.3547 4.1475 5.65271 -0.625491 -3.62519
lowerback -0.849332 2.42781 5.73625
upperback -3.04429 3.35402 3.36171
thorax -2.54207 1.58279 0.21557
lowerneck -9.48133 0.960136 -3.14438
upperneck 11.1665 2.09595 -2.6211
head 4.91397 0.726739 -0.154668
rclavicle -2.93207e-015 1.03368e-014
rhumerus -38.7953 -26.4258 -71.2679
rradius 20.8153
rwrist 9.55153
rhand -21.6841 -42.6766
rfingers 7.12502
rthumb 4.71378 -72.6042
lclavicle -2.93207e-015 1.03368e-014
lhumerus -35.1602 -1.44098 92.443
lradius 30.0641
lwrist 20.4104
lhand -21.0423 -11.2486
lfingers 7.12502
lthumb 5.33347 18.6643
rfemur -21.2714 4.80609 29.5696
rtibia 35.5005
rfoot -15.5113 10.9778
rtoes 9.5485
lfemur -26.9581 5.01115 -16.7786
ltibia 71.878
lfoot -5.05402 4.30875
ltoes -10.6749
174
root 7.30363 16.3686 4.36523 5.7171 -1.04858 -3.87348
lowerback -0.836647 2.62094 6.14092
upperback -3.10772 3.61749 3.30964
thorax -2.57972 1.70153 -0.0643667
lowerneck -9.47371 0.889732 -2.97944
upperneck 11.3684 2.01688 -2.87327
head 4.97995 0.674116 -0.264544
rclavicle 4.27139e-014 6.67916e-014
rhumerus -37.0242 -24.6653 -73.1328
rradius 22.1664
rwrist 7.01998
rhand -22.1369 -39.2994
rfingers 7.12502
rthumb 4.27653 -69.2362
lclavicle 4.27139e-014 6.67916e-014
lhumerus -35.8089 -0.296179 91.7327
lradius 27.6824
lwrist 18.3413
lhand -20.5561 -10.1957
lfingers 7.12502
lthumb 5.80297 19.7048
rfemur -20.3299 4.59001 29.9071
rtibia 35.3341
rfoot -16.4223 11.8853
rtoes 8.40521
lfemur -28.3651 5.42942 -16.7352
ltibia 71.2585
lfoot -6.7492 3.97958
ltoes -14.2033
175
root 7.30746 16.3787 4.58649 5.70124 -1.40947 -3.50168
lowerback -0.86711 2.71753 5.94116
upperback -3.11862 3.73729 3.07984
thorax -2.56407 1.76317 -0.19004
lowerneck -9.34642 0.913051 -2.80796
upperneck 11.4154 2.04055 -3.03344
head 4.97636 0.682834 -0.340881
rclavicle 8.64713e-015 -3.97569e-015
rhumerus -35.1461 -22.402 -75.1306
rradius 23.4846
rwrist 4.17731
rhand -21.8955 -38.1103
rfingers 7.12502
rthumb 4.50963 -68.0423
lclavicle 8.64713e-015 -3.97569e-015
lhumerus -36.5055 1.22613 90.7172
lradius 25.2257
lwrist 15.854
lhand -19.9969 -9.86056
lfingers 7.12502
lthumb 6.34284 20.0245
rfemur -19.3542 4.10766 29.6121
rtibia 35.199
rfoot -17.1708 12.6332
rtoes 6.998
lfemur -29.5395 5.61365 -17.3773
ltibia 70.3204
lfoot -6.99489 4.68498
ltoes -14.0644
176
root 7.30475 16.368 4.79609 5.70223 -1.74577 -3.37756
lowerback -0.785203 2.78898 5.89057
upperback -3.12014 3.83521 2.90775
thorax -2.59815 1.80989 -0.343797
lowerneck -9.31025 1.0037 -2.83995
upperneck 11.4834 2.12495 -2.69836
head 4.98661 0.743565 -0.225971
rclavicle 3.10601e-015 -3.97569e-014
rhumerus -33.1089 -21.6183 -76.4327
rradius 24.1593
rwrist 3.1277
rhand -21.5718 -38.5803
rfingers 7.12502
rthumb 4.82225 -68.5054
lclavicle 3.10601e-015 -3.97569e-014
lhumerus -37.2375 2.799 89.5295
lradius 22.8602
lwrist 13.4086
lhand -19.6618 -9.94588
lfingers 7.12502
lthumb 6.66633 19.9292
rfemur -18.5069 3.77358 29.6399
rtibia 35.1221
rfoot -17.7018 12.8383
rtoes 7.04812
lfemur -30.7997 5.72542 -17.6705
ltibia 69.2181
lfoot -8.19415 4.79394
ltoes -14.6845
177
root 7.296 16.3563 5.00206 5.85363 -2.06722 -3.55674
lowerback -0.804745 2.92352 6.01452
upperback -3.11183 4.01175 2.85756
thorax -2.55887 1.89515 -0.462947
lowerneck -9.35889 1.01485 -2.96694
upperneck 11.4463 2.11412 -2.3542
head 4.97761 0.755639 -0.0992917
rclavicle -4.53229e-014 -5.24792e-014
rhumerus -31.2291 -20.1502 -77.8319
rradius 25.4375
rwrist 1.0067
rhand -21.361 -39.7667
rfingers 7.12502
rthumb 5.02575 -69.6871
lclavicle -4.53229e-014 -5.24792e-014
lhumerus -37.8629 4.4752 88.2108
lradius 20.6583
lwrist 10.46
lhand -19.4832 -10.0995
lfingers 7.12502
lthumb 6.83871 19.7701
rfemur -17.8104 3.67358 29.977
rtibia 35.0284
rfoot -18.1125 12.5103
rtoes 7.77599
lfemur -32.2753 5.70657 -17.5793
ltibia 67.8666
lfoot -9.86482 4.65305
ltoes -15.5629
178
root 7.28829 16.3432 5.20626 5.99386 -2.56432 -3.89104
lowerback -0.781204 3.1119 6.29254
upperback -3.04988 4.2625 2.8669
thorax -2.47765 2.01626 -0.60614
lowerneck -9.45062 0.986309 -2.92429
upperneck 11.2928 2.08054 -2.45326
head 4.9472 0.736885 -0.139213
rclavicle -7.33018e-015 -1.66979e-014
rhumerus -29.6016 -17.9318 -79.1953
rradius 27.2093
rwrist -1.8627
rhand -20.7766 -41.2784
rfingers 7.12502
rthumb 5.59006 -71.1846
lclavicle -7.33018e-015 -1.66979e-014
lhumerus -38.603 7.18914 86.2548
lradius 18.607
lwrist 6.27516
lhand -19.2945 -10.2624
lfingers 7.12502
lthumb 7.02088 19.6011
rfemur -16.9868 3.90349 30.4191
rtibia 34.7721
rfoot -18.5636 11.9204
rtoes 5.90404
lfemur -33.6336 5.7932 -17.3044
ltibia 66.286
lfoot -11.3086 4.56713
ltoes -13.2887
179
root 7.30101 16.3383 5.42422 6.01757 -3.14978 -4.10415
lowerback -0.718372 3.29093 6.80713
upperback -3.02021 4.50445 2.73078
thorax -2.42205 2.12428 -1.03055
lowerneck -9.33463 1.01155 -2.70097
upperneck 11.1105 2.09284 -2.62562
head 4.87519 0.745975 -0.229152
rclavicle -2.08848e-014 7.95139e-016
rhumerus -27.9627 -16.628 -80.1683
rradius 28.2131
rwrist -3.58319
rhand -20.6928 -41.2147
rfingers 7.12502
rthumb 5.67098 -71.1189
lclavicle -2.08848e-014 7.95139e-016
lhumerus -39.7391 10.2263 83.7329
lradius 16.7135
lwrist 1.77439
lhand -18.5976 -10.2835
lfingers 7.12502
lthumb 7.69352 19.5566
rfemur -15.8937 3.59582 30.6301
rtibia 34.44
rfoot -19.2114 12.1653
rtoes 2.69123
lfemur -34.4624 5.99905 -17.263
ltibia 64.4768
lfoot -12.5543 4.57716
ltoes -12.1096
180
root 7.30263 16.3442 5.65198 6.06388 -3.60012 -4.3317
lowerback -0.80776 3.42973 7.10276
upperback -2.98431 4.67825 2.68374
thorax -2.29776 2.20751 -1.23285
lowerneck -9.171 1.0869 -2.58388
upperneck 10.9107 2.16058 -2.59805
head 4.78646 0.791397 -0.236553
rclavicle -3.97694e-014 -5.64548e-014
rhumerus -26.2685 -15.342 -81.0071
rradius 29.1489
rwrist -5.1201
rhand -20.6089 -40.6493
rfingers 7.12502
rthumb 5.75198 -70.5512
lclavicle -3.97694e-014 -5.64548e-014
lhumerus -40.9852 13.3548 80.8671
lradius 14.887
lwrist -3.17952
lhand -17.2711 -10.3152
lfingers 7.12502
lthumb 8.97375 19.474
rfemur -14.6843 3.17761 30.8878
rtibia 33.8748
rfoot -19.572 12.6002
rtoes 1.32014
lfemur -35.1608 6.13771 -17.1204
ltibia 62.3537
lfoot -13.2403 5.05913
ltoes -14.2107
181
root 7.29446 16.3405 5.85592 6.23131 -4.00024 -4.54706
lowerback -0.739808 3.54963 7.16055
upperback -2.96961 4.84454 2.71636
thorax -2.30741 2.2893 -1.23439
lowerneck -9.13588 1.15724 -2.57589
upperneck 10.7175 2.2396 -2.54651
head 4.72027 0.837945 -0.217485
rclavicle -4.97459e-014 -5.64548e-014
rhumerus -24.7087 -13.978 -81.6867
rradius 30.5908
rwrist -6.62208
rhand -19.7235 -40.9473
rfingers 7.12502
rthumb 6.60674 -70.8242
lclavicle -4.97459e-014 -5.64548e-014
lhumerus -42.4547 16.5257 77.7842
lradius 13.3469
lwrist -8.72268
lhand -16.8318 -10.3841
lfingers 7.12502
lthumb 9.39767 19.3864
rfemur -13.7825 3.21989 31.1664
rtibia 33.2944
rfoot -19.5727 12.7328
rtoes 1.53951
lfemur -36.1141 6.0603 -16.88
ltibia 60.0568
lfoot -13.9595 5.43994
ltoes -13.9282
